<svg height="464pt" viewBox="0 0 464 464.17437" width="464pt" xmlns="http://www.w3.org/2000/svg"><path d="m56.203125 208h128c8.839844 0 16 7.164062 16 16s-7.160156 16-16 16h-128c-8.835937 0-16-7.164062-16-16s7.164063-16 16-16zm0 0" fill="#f9e109"/><path d="m60.605469 208h-4.402344c-8.835937 0-16 7.164062-16 16s7.164063 16 16 16h128c8.839844 0 16-7.164062 16-16h-112c-11.390625-.039062-21.902344-6.132812-27.597656-16zm0 0" fill="#fcbc04"/><path d="m168.203125 128c-13.253906 0-24 10.746094-24 24 0-13.253906-10.742187-24-24-24-13.253906 0-24 10.746094-24 24 0-13.253906-10.742187-24-24-24-13.253906 0-24 10.746094-24 24v24c0 17.671875 14.328125 32 32 32h80c17.675781 0 32-14.328125 32-32v-24c0-13.253906-10.742187-24-24-24zm0 0" fill="#4891d3"/><path d="m179.882812 240h-119.359374c-47.179688 27.046875-70.273438 82.4375-56.277344 134.988281 13.992187 52.546875 61.578125 89.117188 115.957031 89.117188 54.382813 0 101.964844-36.570313 115.960937-89.117188 13.992188-52.550781-9.101562-107.941406-56.28125-134.988281zm0 0" fill="#4891d3"/><path d="m144.203125 416c-53.019531 0-96-42.980469-96-96 0-35.347656 28.65625-64 64-64h89.363281c-6.597656-6.140625-13.871094-11.507812-21.683594-16h-119.359374c-46.902344 26.816406-70.101563 81.675781-56.667969 134.007812 13.429687 52.332032 60.179687 89.234376 114.203125 90.148438 54.023437.914062 101.992187-34.386719 117.1875-86.234375-23.996094 24.410156-56.808594 38.136719-91.042969 38.078125zm0 0" fill="#2d72bc"/><path d="m120.203125 336c-8.835937 0-16-7.164062-16-16s7.164063-16 16-16c8.839844 0 16 7.164062 16 16 0 4.417969 3.582031 8 8 8s8-3.582031 8-8c-.046875-14.554688-9.90625-27.242188-24-30.878906v-17.121094c0-4.417969-3.582031-8-8-8s-8 3.582031-8 8v17.121094c-15.40625 4.183594-25.375 19.082031-23.359375 34.917968 2.015625 15.839844 15.394531 27.769532 31.359375 27.960938 8.839844 0 16 7.164062 16 16s-7.160156 16-16 16c-8.835937 0-16-7.164062-16-16 0-4.417969-3.582031-8-8-8s-8 3.582031-8 8c.046875 14.554688 9.910156 27.242188 24 30.878906v17.121094c0 4.417969 3.582031 8 8 8s8-3.582031 8-8v-17.121094c15.410156-4.183594 25.378906-19.082031 23.363281-34.917968-2.015625-15.839844-15.398437-27.769532-31.363281-27.960938zm0 0" fill="#f9e109"/><path d="m112.203125 192c-26.507813 0-48-21.492188-48-48v-14.558594c-9.5625 3.378906-15.96875 12.414063-16 22.558594v24c0 17.671875 14.328125 32 32 32h80c11.394531-.039062 21.90625-6.132812 27.601563-16zm0 0" fill="#2d72bc"/><g fill="#f9e109"><path d="m288.203125 416v-104h32v104"/><path d="m360.203125 416v-136h32v136"/><path d="m432.203125 416v-192h32v192"/><path d="m336.203125 144v-64h32l-80-80-80 80h32v128"/></g><path d="m288.203125 75.679688v-75.679688l-80 80h32v128l96-64v-20.320312c-26.507813 0-48-21.488282-48-48zm0 0" fill="#fcbc04"/><path d="m456.203125 134.160156c-.070313-.902344-.257813-1.789062-.558594-2.640625v-.558593c-.402343-.835938-.914062-1.617188-1.519531-2.320313-.695312-.675781-1.511719-1.21875-2.398438-1.601563h-.5625c-.816406-.320312-1.683593-.480468-2.558593-.480468h-1.679688l-56.5625 11.28125c-4.417969.882812-7.28125 5.183594-6.398437 9.601562.882812 4.417969 5.179687 7.28125 9.601562 6.398438l30.636719-6.480469-83.519531 83.121094-28.480469-28.320313c-3.117187-3.101562-8.160156-3.101562-11.277344 0l-96 96c-1.515625 1.503906-2.367187 3.546875-2.367187 5.679688 0 2.132812.851562 4.179687 2.367187 5.679687 1.507813 1.496094 3.550781 2.332031 5.679688 2.320313 2.125.011718 4.167969-.824219 5.679687-2.320313l90.480469-90.398437 28.320313 28.320312c3.117187 3.101563 8.160156 3.101563 11.277343 0l88.800781-88.800781-6.078124 30.640625c-.886719 4.328125 1.910156 8.554688 6.238281 9.4375h1.601562c3.886719.070312 7.261719-2.660156 8-6.480469l11.277344-56.238281c.042969-.398438.042969-.800781 0-1.199219 0 0 0-.480469 0-.640625zm0 0" fill="#39519d"/><path d="m288.203125 416v-104h16v104" fill="#fcbc04"/><path d="m360.203125 416v-136h16v136" fill="#fcbc04"/><path d="m432.203125 416v-192h16v192" fill="#fcbc04"/></svg>