<svg xmlns="http://www.w3.org/2000/svg" version="1.1" xmlns:xlink="http://www.w3.org/1999/xlink" width="512" height="512" x="0" y="0" viewBox="0 0 512 512" style="enable-background:new 0 0 512 512" xml:space="preserve" class=""><g><path d="M497 224.934h-50.333c-8.284 0-15 6.716-15 15v176.733c0 8.284 6.716 15 15 15H497c8.284 0 15-6.716 15-15V239.934c0-8.285-6.716-15-15-15zM199.066 399.31a.047.047 0 0 1-.01-.01c-13.976-13.974-36.658-14.063-50.744-.266-10.129 10.711-3.911 21.694-.26 25.35l75.668 75.648c15.847 15.863 41.783 16.05 57.835-.002a12.915 12.915 0 0 0 0-18.3z" fill="#308e87" opacity="1" data-original="#000000" class=""></path><path d="M315.283 311.106c-38.908 38.078-101.054 37.302-139.055-.721-5.877-5.884-5.824-15.395.004-21.221l57.399-57.398c-10.941-6.967-23.655-10.699-36.939-10.699h-.049c-18.41.013-35.7 7.188-48.687 20.205l-24.072 24.102-13.552-.001v108.321h21.344c28.329-23.245 66.64-17.558 88.592 4.394l82.497 82.429a42.896 42.896 0 0 1 7.729 10.577l71.774-71.792c5.857-5.858 5.856-15.355-.001-21.212z" fill="#308e87" opacity="1" data-original="#000000" class=""></path><path d="M363.954 241.202c-26.8-26.815-70.512-26.847-97.343 0l-57.385 57.386c37.912 23.967 73.255 2.907 85.566-9.41l9.922-9.934c5.863-5.817 15.332-5.804 21.174.04l75.779 75.779v-89.694h-13.552zM65.333 224.934H15c-8.284 0-15 6.716-15 15v176.733c0 8.284 6.716 15 15 15h50.333c8.284 0 15-6.716 15-15V239.934c0-8.285-6.716-15-15-15zM94.8 2.01a15.002 15.002 0 0 0-15 0L15 39.42l72.3 41.741 72.299-41.741zM7.499 153.214 72.3 190.632v-83.491L0 65.4v74.824c0 5.359 2.859 10.31 7.499 12.99zM174.6 140.224V65.4l-72.3 41.741v83.491l64.801-37.418a15.001 15.001 0 0 0 7.499-12.99zM204.6 72.389h102.8v30H204.6zM432.2 2.01a15.002 15.002 0 0 0-15 0l-64.8 37.41 72.3 41.741L497 39.42zM439.7 107.142v83.491l64.801-37.418a15 15 0 0 0 7.499-12.99V65.4zM337.4 140.224c0 5.359 2.859 10.31 7.499 12.99l64.801 37.418v-83.491L337.4 65.4z" fill="#308e87" opacity="1" data-original="#000000" class=""></path></g></svg>