<svg xmlns="http://www.w3.org/2000/svg" version="1.1" xmlns:xlink="http://www.w3.org/1999/xlink" width="512" height="512" x="0" y="0" viewBox="0 0 24 24" style="enable-background:new 0 0 512 512" xml:space="preserve" class=""><g><path d="M5.76 16.75H4A1.76 1.76 0 0 1 2.25 15V4A1.76 1.76 0 0 1 4 2.25h15A1.76 1.76 0 0 1 20.75 4v.84a3.08 3.08 0 0 0-.75-.09h-2.5a4.75 4.75 0 0 0-4.75 4.75 4.86 4.86 0 0 0 .19 1.33 4.9 4.9 0 0 0-.94-.08 6.24 6.24 0 0 0-6.24 6ZM21.75 8v3A1.76 1.76 0 0 1 20 12.75h-2.5a3.22 3.22 0 0 1-1.12-.2 6.21 6.21 0 0 0-1.46-1.08 3.25 3.25 0 0 1 2.58-5.22H20A1.76 1.76 0 0 1 21.75 8Zm-3.5 1.5a.75.75 0 1 0-.75.75.76.76 0 0 0 .75-.75Zm-.64 4.75a6 6 0 0 1 .63 2.5H19A1.76 1.76 0 0 0 20.75 15v-.84a3.08 3.08 0 0 1-.75.09ZM16.75 17A4.75 4.75 0 1 1 12 12.25 4.75 4.75 0 0 1 16.75 17ZM14 16.47a.75.75 0 0 0-1.06 0l-.22.22V15.5a.75.75 0 0 0-1.5 0v1.19l-.22-.22a.75.75 0 0 0-1 1.06l1.5 1.5a.78.78 0 0 0 .24.16.73.73 0 0 0 .58 0 .78.78 0 0 0 .24-.16l1.5-1.5a.75.75 0 0 0-.06-1.06Z" fill="#308e87" opacity="1" data-original="#000000" class=""></path></g></svg>