<svg xmlns="http://www.w3.org/2000/svg" version="1.1" xmlns:xlink="http://www.w3.org/1999/xlink" width="512" height="512" x="0" y="0" viewBox="0 0 510 510" style="enable-background:new 0 0 512 512" xml:space="preserve" fill-rule="evenodd" class=""><g><path d="M393.525 450.545V226.009c7.815-1.664 17.639-2.854 29.913-2.884 33.817-.081 51.007 9.685 56.298 12.597 4.586 2.525 10.764 8.515 10.764 15.505v80.513c0 6.199-5.032 11.231-11.231 11.231s-11.231-5.032-11.231-11.231v-54.564c0-2.484-2.017-4.5-4.5-4.5a4.502 4.502 0 0 0-4.5 4.5v161.33c0 8.585-6.97 15.555-15.556 15.555-8.585 0-15.555-6.97-15.555-15.555h-.087v-62.587c0-2.484-2.016-4.5-4.5-4.5a4.502 4.502 0 0 0-4.5 4.5v64.236c-.825 7.811-7.44 13.906-15.469 13.906a15.49 15.49 0 0 1-9.846-3.516zm-71.452-249.052h-22.462v-26.315c0-2.483-2.016-4.5-4.5-4.5s-4.5 2.017-4.5 4.5v26.315H219.389v-26.315c0-2.483-2.016-4.5-4.5-4.5s-4.5 2.017-4.5 4.5v26.315h-22.462V149.23c0-6.963 6.499-12.74 10.987-15.132 4.835-2.576 19.676-12.882 56.097-12.97 33.817-.082 51.007 9.684 56.298 12.597 4.586 2.524 10.764 8.515 10.764 15.505zm-205.598 24.511v224.541a15.49 15.49 0 0 1-9.846 3.516c-8.586 0-15.556-6.97-15.556-15.555h-.086v-62.587c0-2.484-2.017-4.5-4.5-4.5a4.502 4.502 0 0 0-4.5 4.5v64.236c-.825 7.811-7.441 13.906-15.469 13.906-8.586 0-15.556-6.97-15.556-15.555v-161.33c0-2.484-2.016-4.5-4.5-4.5a4.502 4.502 0 0 0-4.5 4.5v54.564c0 6.199-5.032 11.231-11.231 11.231S19.5 337.939 19.5 331.74v-80.513c0-6.963 6.499-12.74 10.987-15.131 4.835-2.576 19.677-12.883 56.097-12.971 11.98-.029 21.874 1.179 29.891 2.879zm-29.902-76.51c17.789 0 32.231 14.442 32.231 32.231 0 17.788-14.442 32.23-32.231 32.23-17.788 0-32.231-14.442-32.231-32.23 0-17.789 14.443-32.231 32.231-32.231zM255 47.497c17.789 0 32.231 14.442 32.231 32.23 0 17.789-14.442 32.231-32.231 32.231s-32.231-14.442-32.231-32.231c0-17.788 14.442-32.23 32.231-32.23zm168.427 101.997c17.788 0 32.231 14.442 32.231 32.231 0 17.788-14.443 32.23-32.231 32.23-17.789 0-32.231-14.442-32.231-32.23 0-17.789 14.442-32.231 32.231-32.231zM262.98 462.503v-29.484c1.657.942 3.094 1.894 4.633 2.694 3.846 1.997 8.058 3.502 14.723 3.502 18.758 0 33.965-15.206 33.965-33.964s-15.207-33.965-33.965-33.965c-6.665 0-10.877 1.505-14.723 3.503-1.539.799-2.976 1.752-4.633 2.693v-29.484h40.897a8 8 0 0 0 7.856-9.51c-1.282-6.669-3.37-10.874-5.429-14.475-1.914-3.347-3.996-5.782-3.996-11.371 0-9.921 8.043-17.964 17.964-17.964 9.922 0 17.965 8.043 17.965 17.964 0 5.589-2.083 8.024-3.996 11.371-2.059 3.601-4.147 7.806-5.43 14.475a8.001 8.001 0 0 0 7.857 9.51h40.857v107.505a7 7 0 0 1-7 7H262.98zm114.545-130.505h-29.484c.941-1.656 1.894-3.093 2.693-4.633 1.998-3.846 3.503-8.057 3.503-14.723 0-18.758-15.207-33.964-33.965-33.964s-33.964 15.206-33.964 33.964c0 6.666 1.505 10.877 3.502 14.723.8 1.54 1.752 2.977 2.694 4.633H263.02v-40.857a8 8 0 0 0-9.511-7.856c-6.669 1.282-10.873 3.37-14.474 5.429-3.347 1.913-5.782 3.996-11.371 3.996-9.922 0-17.965-8.043-17.965-17.965 0-9.921 8.043-17.964 17.965-17.964 5.589 0 8.024 2.082 11.371 3.996 3.601 2.059 7.805 4.147 14.474 5.429a7.999 7.999 0 0 0 9.511-7.856v-40.857h107.505a7 7 0 0 1 7 7zM247.02 217.493v29.484c-1.657-.942-3.094-1.894-4.633-2.694-3.846-1.997-8.058-3.502-14.723-3.502-18.758 0-33.965 15.206-33.965 33.964s15.207 33.965 33.965 33.965c6.665 0 10.877-1.505 14.723-3.503 1.539-.799 2.976-1.752 4.633-2.693v29.484h-40.897a8 8 0 0 0-7.856 9.51c1.282 6.669 3.37 10.874 5.429 14.475 1.914 3.347 3.996 5.782 3.996 11.371 0 9.921-8.043 17.964-17.964 17.964-9.922 0-17.965-8.043-17.965-17.964 0-5.589 2.083-8.024 3.996-11.371 2.059-3.601 4.147-7.806 5.43-14.475a8.001 8.001 0 0 0-7.857-9.51h-40.857V224.493a7 7 0 0 1 7-7zm-.04 130.505v40.857a8 8 0 0 0 9.511 7.856c6.669-1.282 10.873-3.37 14.474-5.429 3.347-1.913 5.782-3.996 11.371-3.996 9.922 0 17.965 8.043 17.965 17.965 0 9.921-8.043 17.964-17.965 17.964-5.589 0-8.024-2.082-11.371-3.996-3.601-2.059-7.805-4.147-14.474-5.429a7.999 7.999 0 0 0-9.511 7.856v40.857H139.475a7 7 0 0 1-7-7V347.998h29.484c-.941 1.656-1.894 3.093-2.693 4.633-1.998 3.846-3.503 8.057-3.503 14.723 0 18.758 15.207 33.964 33.965 33.964s33.964-15.206 33.964-33.964c0-6.666-1.505-10.877-3.502-14.723-.8-1.54-1.752-2.977-2.694-4.633z" fill="#308e87" opacity="1" data-original="#000000" class=""></path></g></svg>