<svg xmlns="http://www.w3.org/2000/svg" version="1.1" xmlns:xlink="http://www.w3.org/1999/xlink" width="512" height="512" x="0" y="0" viewBox="0 0 64 64" style="enable-background:new 0 0 512 512" xml:space="preserve" class=""><g><path d="M36 27h-8v3l-3.37 1.872 4.7 2.612L32 33l2.67 1.484 4.7-2.612L36 30z" fill="#308e87" opacity="1" data-original="#000000" class=""></path><path d="M32 1C20 8 10 11 1 11c0 18 9 45 31 52 22-7 31-34 31-52-9 0-19-3-31-10zm13 14 7.971 4.428L45 23.856l-7.971-4.428zm9 6.144V30l-8 4.444v-8.856zm-36 13.3L10 30v-8.856l8 4.444zm-6.971-15.016L19 15l7.971 4.428L19 23.856zM31 52.444 23 48v-8.856l8 4.444zM41 48l-8 4.444v-8.856l8-4.444zm3-13.556-2.57-1.428-4.7 2.611 3.241 1.801L32 41.856l-7.971-4.428 3.241-1.801-4.7-2.611L20 34.444v-8.856l8-4.444V25h8v-3.856l8 4.444zm1.74 16.068-1.479-1.346c2.7-2.968 5.094-6.538 7.117-10.61l1.791.889c-2.105 4.239-4.604 7.962-7.429 11.067zm6.567-13.922c.428-.951.843-1.944 1.235-2.952l1.864.725a62.771 62.771 0 0 1-1.276 3.048z" fill="#308e87" opacity="1" data-original="#000000" class=""></path></g></svg>