<svg xmlns="http://www.w3.org/2000/svg" version="1.1" xmlns:xlink="http://www.w3.org/1999/xlink" width="512" height="512" x="0" y="0" viewBox="0 0 512 512" style="enable-background:new 0 0 512 512" xml:space="preserve" class=""><g><path fill-rule="evenodd" d="m126.834 353.121-16.691 28.642c-1.384 2.375.487 4.979 2.861 4.979h142.171a115.171 115.171 0 0 1-30.051-33.621zm272.546 44.203 5.156-5.156-19.524-19.523c-38.736 30.498-95.032 27.89-130.758-7.836-38.546-38.546-38.546-101.041 0-139.588 38.546-38.546 101.042-38.546 139.587 0 35.726 35.726 38.334 92.021 7.836 130.757l19.523 19.523 5.155-5.155a1.772 1.772 0 0 1 2.5 0l68.063 68.063c8.107 8.107 8.107 21.369 0 29.476-8.106 8.106-21.37 8.106-29.477 0l-68.062-68.063a1.772 1.772 0 0 1 .001-2.498zm-67.331-112.936v-32.807a8 8 0 0 0-16 0v38.856l-22.475 12.976a7.967 7.967 0 0 0 7.937 13.813l17.288-9.981c5.125 4.461 13.249.849 13.249-6.037v-1.595l1.362-.787c5.917-3.42 5.021-12.206-1.361-14.438zm-8-70.121c44.596 0 80.75 36.155 80.75 80.75 0 44.596-36.154 80.75-80.75 80.75-44.595 0-80.75-36.154-80.75-80.75s36.155-80.75 80.75-80.75zm45.786 34.964c25.286 25.286 25.286 66.286 0 91.572s-66.286 25.286-91.572 0-25.286-66.286 0-91.572 66.286-25.286 91.572 0zm-160.299 52.216H9v14.369c0 11.719 9.588 21.306 21.306 21.306h187.027a114.848 114.848 0 0 1-7.797-35.675zM108.543 162.356c-11.159-2.229-21.622 6.281-21.622 17.711 0 9.976 8.087 18.063 18.063 18.063 13.496 0 22.055-14.202 16.204-26.049l52.285-67.979a18.07 18.07 0 0 0 12.588-2.063l45.118 30.235c-1.437 10.844 6.975 20.462 17.904 20.462 12.139 0 20.72-11.698 17.323-23.19l45.936-42.412-1.393 7.67a7.97 7.97 0 0 0 15.688 2.812l5.361-29.508c1.059-5.127-2.534-9.554-7.395-9.783l-30.372-1.431a7.978 7.978 0 0 0-.75 15.938l10.288.485-48.193 44.496a18.082 18.082 0 0 0-15.518 1.212L194.939 88.79c1.437-10.842-6.975-20.462-17.904-20.462-13.495 0-22.055 14.201-16.204 26.048zm308.572 65.608V59.339c0-11.719-9.588-21.306-21.306-21.306H30.306C18.588 38.033 9 47.62 9 59.339v226.108h75.354v-51.869c0-2.203 1.797-4 4-4h33.259c2.203 0 4 1.797 4 4v51.869h30.79V153.934c0-2.203 1.797-4 4-4h33.259c2.203 0 4 1.797 4 4v131.514h12.093c1.571-18.89 7.803-37.462 18.698-53.851v-43.411c0-2.203 1.797-4 4-4h33.259c2.203 0 4 1.797 4 4v5.792a114.18 114.18 0 0 1 30.79-11.223v-61.09c0-2.203 1.797-4 4-4h33.259c2.203 0 4 1.797 4 4v60.029c29.781 4.624 57.05 20.893 75.354 46.27z" clip-rule="evenodd" fill="#308e87" opacity="1" data-original="#000000" class=""></path></g></svg>