<svg xmlns="http://www.w3.org/2000/svg" version="1.1" xmlns:xlink="http://www.w3.org/1999/xlink" width="512" height="512" x="0" y="0" viewBox="0 0 512 512" style="enable-background:new 0 0 512 512" xml:space="preserve" class=""><g><path d="M395.14-.01H173.47c-18.62 0-33.78 15.15-33.78 33.77v197.38l-55.27 83.54a7.991 7.991 0 0 0-1.33 4.42V504a8 8 0 0 0 8 8.01h128.36c4.42 0 8.01-3.58 8.01-8.01v-41.97l24.6-24.54h143.08c18.62 0 33.77-15.14 33.77-33.75V33.76c0-18.62-15.15-33.77-33.77-33.77zm17.76 380.1H204.43l44.92-75.79c10.06-16.96 4.44-38.96-12.53-49.04-8.21-4.87-17.86-6.24-27.16-3.85-9.27 2.38-17.05 8.2-21.88 16.38l-32.07 54.1V57.39H412.9zM244.29 140.26c0-27.25 17.95-49.42 40.01-49.42 22.05 0 39.99 22.17 39.99 49.42 0 26.67-17.18 48.47-38.59 49.39a32.346 32.346 0 0 1-2.79 0c-21.42-.91-38.62-22.71-38.62-49.39zm75.15 159.45c0 19.09 15.53 34.63 34.62 34.63 19.1 0 34.63-15.54 34.63-34.63s-15.53-34.63-34.63-34.63c-19.09 0-34.62 15.54-34.62 34.63zm42.63-18.37v10.36h10.36c4.43 0 8.01 3.59 8.01 8.01s-3.58 8.01-8.01 8.01h-10.36v10.36c0 4.42-3.58 8.01-8.01 8.01-4.42 0-8-3.59-8-8.01v-10.36H335.7c-4.43 0-8.01-3.59-8.01-8.01s3.58-8.01 8.01-8.01h10.36v-10.36c0-4.42 3.58-8.01 8-8.01 4.43 0 8.01 3.59 8.01 8.01zm-156.39-45.43c-1.95.5-3.86 1.11-5.71 1.83 6.81-20.57 45.51-31.73 82.66-32.07.58-.01 1.16-.01 1.74-.01.54 0 1.09 0 1.63.01 22.43.18 43.97 4.14 59.29 10.95 11.14 4.95 24.41 13.76 24.41 27.67v7.26a50.31 50.31 0 0 0-15.64-2.48c-23.35 0-43.06 15.89-48.89 37.42h-34.84c.13-17.82-8.95-35.25-25.35-44.99a51.547 51.547 0 0 0-26.3-7.24c-4.37 0-8.74.56-13 1.65z" fill="#308e87" opacity="1" data-original="#000000" class=""></path></g></svg>