<svg xmlns="http://www.w3.org/2000/svg" version="1.1" xmlns:xlink="http://www.w3.org/1999/xlink" width="512" height="512" x="0" y="0" viewBox="0 0 32 32" style="enable-background:new 0 0 512 512" xml:space="preserve" class=""><g><path d="M28 25c-.462 0-.895.113-1.285.3l-2.978-2.978C25.15 20.598 26 18.396 26 16s-.85-4.598-2.263-6.322l2.978-2.979c.39.188.823.301 1.285.301 1.654 0 3-1.346 3-3s-1.346-3-3-3-3 1.346-3 3c0 .462.113.894.3 1.285l-2.977 2.978C20.598 6.851 18.396 6 16 6s-4.598.85-6.323 2.263L6.699 5.285C6.887 4.895 7 4.462 7 4c0-1.654-1.346-3-3-3S1 2.346 1 4s1.346 3 3 3c.462 0 .895-.113 1.285-.3l2.978 2.978C6.85 11.402 6 13.604 6 16s.85 4.598 2.263 6.322l-2.978 2.979C4.895 25.113 4.462 25 4 25c-1.654 0-3 1.346-3 3s1.346 3 3 3 3-1.346 3-3c0-.462-.113-.895-.3-1.285l2.977-2.978C11.402 25.149 13.604 26 16 26s4.598-.85 6.323-2.263l2.978 2.978c-.188.39-.301.823-.301 1.285 0 1.654 1.346 3 3 3s3-1.346 3-3-1.346-3-3-3zM16 9c1.65 0 3 1.35 3 3s-1.35 3-3 3-3-1.35-3-3 1.35-3 3-3zm4 12.19c0 .35-.19.68-.49.86-1.05.62-2.26.95-3.51.95s-2.46-.33-3.51-.95c-.3-.18-.49-.51-.49-.86V20c0-2.21 1.79-4 4-4s4 1.79 4 4z" fill="#308e87" opacity="1" data-original="#000000" class=""></path></g></svg>